<svg xmlns="http://www.w3.org/2000/svg" width="9.839" height="17" version="0.0"><path stroke="#000" stroke-width=".444" d="M9.617 6.944a4.71 4.71 0 0 0-2.87-4.331 4.37 4.37 0 0 0 1.92-1.72.446.446 0 0 0-.152-.608.446.446 0 0 0-.608.151 3.46 3.46 0 0 1-2.985 1.697A3.47 3.47 0 0 1 1.932.436a.44.44 0 0 0-.608-.15.44.44 0 0 0-.151.608 4.37 4.37 0 0 0 1.919 1.719 4.71 4.71 0 0 0-2.87 4.33 4.704 4.704 0 0 0 4.255 4.678v1.701H2.354c-.244 0-.444.2-.444.444 0 .245.2.444.444.444h2.123v2.124a.445.445 0 0 0 .888 0V14.21H7.49c.244 0 .444-.2.444-.444s-.2-.444-.444-.444H5.366v-1.701a4.71 4.71 0 0 0 4.25-4.677zm-8.515 0a3.816 3.816 0 0 1 3.81-3.812 3.816 3.816 0 0 1 3.812 3.812 3.816 3.816 0 0 1-3.811 3.81 3.816 3.816 0 0 1-3.811-3.81z"/></svg>